<svg xmlns="http://www.w3.org/2000/svg" width="19" height="21" viewBox="0 0 19 21">
    <g fill="#1D1D1B" fill-rule="nonzero">
        <path d="M15.622 7.827c-.67-.552-1.448-.86-2.178-.86-.577 0-.988.096-1.634.337-.277.105-.427.161-.578.213-.46.156-.852.236-1.29.236-.475 0-.91-.089-1.441-.264-.14-.046-.12-.038-.517-.18-.708-.251-1.08-.341-1.557-.341-1.124 0-2.34.72-3.115 1.914-1.19 1.832-.845 5.362 1.05 8.25.934 1.419 1.69 2.111 2.435 2.118.276.003.474-.048.81-.194l.27-.119c.712-.314 1.26-.457 2.076-.461.829-.005 1.38.14 2.093.464l.244.11c.333.15.523.2.797.197.719-.006 1.506-.76 2.491-2.26.337-.512.524-.83.769-1.334-2.77-1.686-3.16-5.678-.725-7.826zm2.676 7.778c-.504 1.115-.722 1.528-1.257 2.343-1.306 1.989-2.4 3.035-3.937 3.05-.564.005-.984-.107-1.528-.35l-.252-.115c-.503-.228-.818-.31-1.362-.307-.543.003-.87.088-1.38.313l-.28.123c-.542.235-.964.343-1.522.338-1.54-.014-2.64-1.02-3.88-2.908C.652 14.67.235 10.405 1.844 7.93c1.085-1.672 2.84-2.711 4.583-2.711.727 0 1.261.129 2.143.443.376.133.357.127.477.166.37.122.635.176.895.176.22 0 .434-.044.727-.143.121-.042.243-.087.528-.195.825-.308 1.425-.448 2.247-.448 1.542 0 3.108.82 4.204 2.185a.875.875 0 0 1-.262 1.315c-2.377 1.302-2.07 4.767.423 5.71a.875.875 0 0 1 .489 1.178zM12.338 3.019c.568-.73 1-1.76.843-2.813-.93.064-2.014.655-2.649 1.425-.575.7-1.05 1.735-.866 2.743 1.013.032 2.063-.574 2.671-1.355z"/>
    </g>
</svg>
