<svg xmlns="http://www.w3.org/2000/svg" xmlns:xlink="http://www.w3.org/1999/xlink" width="28" height="20" viewBox="0 0 28 20">
    <defs>
        <rect id="a" width="28" height="20" rx="2"/>
        <path id="c" d="M0 3.333V0l1.333.667L2.667 0 4 .667 5.333 0v3.333c0 2-2.666 3.334-2.666 3.334S0 5.333 0 3.333z"/>
        <linearGradient id="e" x1="50%" x2="50%" y1="0%" y2="100%">
            <stop offset="0%" stop-color="#FFA51B"/>
            <stop offset="100%" stop-color="#FF9A00"/>
        </linearGradient>
    </defs>
    <g fill="none" fill-rule="evenodd">
        <mask id="b" fill="#fff">
            <use xlink:href="#a"/>
        </mask>
        <use fill="#FFF" xlink:href="#a"/>
        <path fill="#0A17A7" d="M0 0h28v20H0z" mask="url(#b)"/>
        <g mask="url(#b)">
            <g transform="translate(17.333 6.667)">
                <mask id="d" fill="#fff">
                    <use xlink:href="#c"/>
                </mask>
                <use fill="#FFF" xlink:href="#c"/>
                <path fill="#9ACCFF" d="M0 5.333h5.333v1.333H0z" mask="url(#d)"/>
                <path fill="url(#e)" d="M2.667 2.667a.667.667 0 1 1 0-1.334.667.667 0 0 1 0 1.334zM1.333 4a.667.667 0 1 1 0-1.333.667.667 0 0 1 0 1.333zM4 4a.667.667 0 1 1 0-1.333A.667.667 0 0 1 4 4z" mask="url(#d)"/>
            </g>
        </g>
        <path fill="#FF2E3B" stroke="#FFF" stroke-width=".667" d="M4.333 4.153L-.9-.333H.667l.193.062L5.44 3h1.131l5.762-3.601v.934c0 .296-.17.627-.417.803l-4.25 3.036V5.18l4.3 3.685c.377.323.185.802-.3.802-.257 0-.588-.107-.804-.261L6.56 6.333H5.429L-.333 9.935v-1.44l4.666-3.333V4.153z" mask="url(#b)"/>
        <path fill="#FFF" d="M0 3.333V6h4.667v3.34c0 .364.306.66.673.66h1.32a.67.67 0 0 0 .673-.66V6h4.658a.677.677 0 0 0 .676-.673v-1.32a.674.674 0 0 0-.676-.674H7.333V0H4.667v3.333H0z" mask="url(#b)"/>
        <path fill="#FF2E3B" d="M0 4h5.333V0h1.334v4H12v1.333H6.667v4H5.333v-4H0z" mask="url(#b)"/>
    </g>
</svg>
