<?xml version="1.0" standalone="no"?>
<!DOCTYPE svg PUBLIC "-//W3C//DTD SVG 1.1//EN" "http://www.w3.org/Graphics/SVG/1.1/DTD/svg11.dtd" >
<svg xmlns="http://www.w3.org/2000/svg" xmlns:xlink="http://www.w3.org/1999/xlink" version="1.1">
<metadata>
Created by FontForge 20170731 at Wed Jul 23 01:17:18 2008
 By Aleksey,,,
Copyright (c) Daniel Utz, 2008. All rights reserved. PDF-RiP (c) 2008 by AcnApyX.
</metadata>
<defs>
<font id="NettoOT-Bold" horiz-adv-x="1310" >
  <font-face 
    font-family="Netto OT"
    font-weight="700"
    font-stretch="normal"
    units-per-em="1000"
    panose-1="2 0 5 0 3 0 0 2 0 4"
    ascent="800"
    descent="-200"
    x-height="507"
    cap-height="711"
    bbox="-407 -223 1144 916"
    underline-thickness="50"
    underline-position="-150"
    unicode-range="U+0020-FB02"
  />
<missing-glyph horiz-adv-x="545" 
d="M150 0q-27 0 -46 19.5t-19 45.5v572q0 27 19.5 45.5t45.5 18.5h245q26 0 45.5 -19t19.5 -45v-572q0 -27 -19.5 -46t-45.5 -19h-245zM357 603h-169v-505h169v505z" />
    <glyph glyph-name="fi" unicode="fi" horiz-adv-x="557" 
d="M63 562q0 31 11.5 58t32 47t47.5 32t58 12q15 0 30 -1.5t30 -3.5q19 -3 31 -17t12 -33q0 -20 -14.5 -33.5t-35.5 -13.5q-5 0 -9 1t-9 2t-13 2t-22 1q-19 0 -32.5 -13t-13.5 -32v-63h98q22 0 36.5 -14t14.5 -35q0 -22 -15 -35.5t-36 -13.5h-98v-367q0 -22 -15 -37t-36 -15
q-22 0 -37 15t-15 37v520zM494 653q0 -24 -17 -41t-41 -17t-41 17t-17 41t17 41t41 17t41 -17t17 -41zM384 465q0 22 15.5 37t36.5 15q22 0 36.5 -15t14.5 -37v-423q0 -22 -14.5 -37t-36.5 -15q-21 0 -36.5 15t-15.5 37v423z" />
    <glyph glyph-name="fl" unicode="fl" horiz-adv-x="568" 
d="M63 562q0 31 11.5 58t32 47t47.5 32t58 12q15 0 30 -1.5t30 -3.5q19 -3 31 -17t12 -33q0 -20 -14.5 -33.5t-35.5 -13.5q-5 0 -9 1t-9 2t-13 2t-22 1q-19 0 -32.5 -13t-13.5 -32v-63h98q22 0 36.5 -14t14.5 -35q0 -22 -15 -35.5t-36 -13.5h-98v-367q0 -22 -15 -37t-36 -15
q-22 0 -37 15t-15 37v520zM397 659q0 22 15 37t37 15q21 0 36 -15t15 -37v-617q0 -22 -15 -37t-36 -15q-22 0 -37 15t-15 37v617z" />
    <glyph glyph-name=".notdef" horiz-adv-x="545" 
d="M150 0q-27 0 -46 19.5t-19 45.5v572q0 27 19.5 45.5t45.5 18.5h245q26 0 45.5 -19t19.5 -45v-572q0 -27 -19.5 -46t-45.5 -19h-245zM357 603h-169v-505h169v505z" />
    <glyph glyph-name=".null" horiz-adv-x="0" 
 />
    <glyph glyph-name="nonmarkingreturn" horiz-adv-x="250" 
 />
    <glyph glyph-name="space" unicode=" " horiz-adv-x="250" 
 />
    <glyph glyph-name="space" unicode="&#xa0;" horiz-adv-x="250" 
 />
    <glyph glyph-name="ampersand" unicode="&#x26;" horiz-adv-x="696" 
d="M484 88q-20 -19 -42 -36.5t-48.5 -31t-57.5 -22t-68 -8.5q-42 0 -79.5 15.5t-65.5 42t-44 62.5t-16 77q0 29 9 58.5t26 54.5q20 29 46.5 51.5t51.5 38.5l-15 16q-62 65 -62 137q0 35 14 65.5t37.5 53.5t55.5 36t68 13t67.5 -13t55.5 -36t37.5 -53.5t13.5 -65.5
q0 -21 -15 -36.5t-36 -15.5q-22 0 -37 15.5t-15 36.5q0 13 -5.5 26t-15.5 23.5t-22.5 16.5t-27.5 6t-27.5 -6t-22.5 -16.5t-15.5 -23.5t-5.5 -26q0 -31 33 -65l228 -239l76 88q8 9 18 13.5t21 4.5q20 0 36 -14t16 -37q0 -19 -12 -34l-84 -97l82 -85q14 -14 14 -36
q0 -20 -15 -36t-37 -16q-21 0 -37 16zM266 318q-22 -13 -44 -30.5t-38 -40.5q-8 -13 -13 -29.5t-5 -30.5q0 -20 8 -38t22 -32t32.5 -22.5t39.5 -8.5q22 0 41 6t36.5 16t34 24t33.5 31z" />
    <glyph glyph-name="parenleft" unicode="(" horiz-adv-x="311" 
d="M201 -145q-14 0 -26.5 7t-19.5 20q-51 96 -78 206.5t-27 228.5t27.5 227.5t77.5 206.5q7 14 19.5 21t26.5 7q22 0 36.5 -16t14.5 -36q0 -12 -6 -24q-43 -85 -68 -183t-25 -203q0 -106 23.5 -204.5t69.5 -182.5q6 -11 6 -23q0 -22 -15.5 -37t-35.5 -15z" />
    <glyph glyph-name="parenright" unicode=")" horiz-adv-x="315" 
d="M160 -118q-7 -13 -19.5 -20t-26.5 -7q-20 0 -35.5 15t-15.5 37q0 12 6 23q46 84 69.5 182.5t23.5 204.5q0 105 -25 203t-68 183q-6 12 -6 24q0 20 14.5 36t36.5 16q14 0 26.5 -7t19.5 -21q50 -97 77.5 -206.5t27.5 -227.5t-27 -228.5t-78 -206.5z" />
    <glyph glyph-name="comma" unicode="," horiz-adv-x="201" 
d="M101 -88q-5 -16 -19 -25.5t-30 -9.5q-20 0 -36 15t-16 37q0 8 3 17l48 140q5 16 19 25.5t30 9.5q20 0 36 -14.5t16 -36.5q0 -8 -3 -17z" />
    <glyph glyph-name="hyphen" unicode="-" horiz-adv-x="438" 
d="M102 249q-20 0 -34 14.5t-14 34.5t13.5 34.5t34.5 14.5h233q20 0 34.5 -14.5t14.5 -34.5t-14.5 -34.5t-34.5 -14.5h-233z" />
    <glyph glyph-name="period" unicode="." horiz-adv-x="201" 
d="M101 -8q-27 0 -46 19t-19 46q0 26 19 45t46 19q26 0 45 -19t19 -45q0 -27 -19 -46t-45 -19z" />
    <glyph glyph-name="slash" unicode="/" horiz-adv-x="546" 
d="M347 678q6 15 20 24t29 9q22 0 36.5 -16t14.5 -35q0 -11 -4 -20l-244 -617q-6 -15 -20 -24t-29 -9q-21 0 -36 16t-15 35q0 11 4 20z" />
    <glyph glyph-name="zero" unicode="0" horiz-adv-x="577" 
d="M518 220q0 -103 -63 -166q-64 -64 -167 -64q-102 0 -166 64q-63 63 -63 166v261q0 103 63 166q64 64 166 64q103 0 166 -63q64 -64 64 -167v-261zM415 490q0 61 -33.5 93.5t-93.5 32.5t-93 -32.5t-33 -93.5v-279q0 -60 33 -93t93 -33t93.5 33t33.5 93v279z" />
    <glyph glyph-name="one" unicode="1" horiz-adv-x="384" 
d="M186 580l-90 -52q-14 -9 -29 -9q-21 0 -35 14.5t-14 34.5q0 29 26 44l158 91q14 8 29 8q24 0 41 -17t17 -41v-611q0 -22 -15 -37t-36 -15q-22 0 -37 15t-15 37v538z" />
    <glyph glyph-name="two" unicode="2" horiz-adv-x="494" 
d="M85 0q-24 0 -41 17t-17 41q0 21 13 37l252 303q22 26 32 52t10 58q0 22 -7 41.5t-20 34.5t-32.5 23.5t-43.5 8.5q-32 0 -59 -5.5t-59 -22.5q-6 -3 -12 -5.5t-14 -2.5q-20 0 -35 13.5t-15 33.5q0 14 7 26t21 19q46 24 85 31.5t81 7.5q45 0 83 -14.5t66 -43.5
q29 -29 43 -67t14 -83q0 -29 -6.5 -53t-16.5 -44.5t-22.5 -38t-24.5 -33.5q-6 -8 -28 -34.5t-51 -61t-60.5 -72t-56.5 -68.5h222q22 0 36.5 -14t14.5 -34q0 -22 -14.5 -36t-36.5 -14h-308z" />
    <glyph glyph-name="three" unicode="3" horiz-adv-x="508" 
d="M198 313q-22 0 -37 14.5t-15 36.5q0 21 15 36t37 15h13q25 0 46.5 7.5t38 21t26 31t9.5 37.5q0 46 -27 75t-77 29q-32 0 -60 -5.5t-60 -21.5q-11 -6 -24 -6q-19 0 -34 13.5t-15 33.5q0 31 28 45q46 23 84.5 29.5t80.5 6.5q91 0 149 -55t58 -144q0 -43 -19 -79.5
t-54 -64.5q44 -29 68.5 -71.5t24.5 -93.5q0 -47 -16.5 -86t-46.5 -67.5t-72 -44t-92 -15.5q-49 0 -90.5 9.5t-80.5 27.5q-29 14 -29 45q0 20 15 34t37 14q5 0 11 -2t11 -4q29 -14 59 -21.5t67 -7.5q22 0 44.5 7t40 21.5t28.5 37t11 52.5q0 22 -10.5 42t-28.5 35t-42.5 24
t-52.5 9h-19z" />
    <glyph glyph-name="four" unicode="4" horiz-adv-x="497" 
d="M382 144v-103q0 -22 -15 -36.5t-37 -14.5q-21 0 -36 14.5t-15 36.5v103h-198q-23 0 -40.5 15t-17.5 40q0 11 4 20l170 458q13 34 50 34q20 0 34 -15t14 -37q0 -9 -3 -18l-151 -399h138v100q0 22 15 37t36 15q22 0 37 -15t15 -37v-100h60q21 0 35.5 -14t14.5 -35
t-14.5 -35t-35.5 -14h-60z" />
    <glyph glyph-name="five" unicode="5" horiz-adv-x="522" 
d="M468 204q0 -44 -17 -83t-46 -68t-68 -46t-83 -17q-49 0 -91 9.5t-80 28.5q-29 14 -29 44q0 20 14.5 34.5t36.5 14.5q12 0 24 -7q54 -29 125 -29q23 0 43 10t35 26.5t23.5 38t8.5 44.5v33q0 23 -8.5 44.5t-23.5 38t-35 26.5t-43 10q-56 0 -105 -26q-14 -7 -27 -7
q-24 0 -41 17t-17 41v256q0 26 19 45t45 19h271q20 0 34.5 -14.5t14.5 -34.5t-14 -34.5t-35 -14.5h-232v-164q42 12 87 12q44 0 83 -17t68 -46t46 -68t17 -83v-33z" />
    <glyph glyph-name="six" unicode="6" horiz-adv-x="527" 
d="M486 204q0 -44 -17 -83t-46 -68t-68 -46t-83 -17t-82.5 17t-67.5 46t-46 68t-17 83v164q0 155 64 243q36 49 90.5 74.5t123.5 25.5q34 0 69 -8q19 -4 30 -17t11 -31q0 -20 -14.5 -33t-35.5 -13q-13 0 -25 3.5t-35 3.5q-10 0 -25.5 -1.5t-33 -7.5t-36 -18.5t-34.5 -35
t-27.5 -55.5t-15.5 -81q24 18 51 26t56 8q44 0 83 -17t68 -46t46 -68t17 -83v-33zM383 246q0 23 -9 43t-24 35t-35 23.5t-43 8.5t-43 -8.5t-35 -23.5t-23.5 -35t-8.5 -43v-51q0 -23 8.5 -43t23.5 -35t35 -23.5t43 -8.5t43 8.5t35 23.5t24 35t9 43v51z" />
    <glyph glyph-name="seven" unicode="7" horiz-adv-x="475" 
d="M332 603h-273q-22 0 -36 14t-14 34q0 21 14 35.5t36 14.5h335q25 0 41.5 -17.5t16.5 -40.5q0 -12 -4 -21l-249 -600q-6 -15 -19.5 -23.5t-28.5 -8.5q-22 0 -36 15t-14 36q0 11 4 20z" />
    <glyph glyph-name="eight" unicode="8" horiz-adv-x="554" 
d="M406 369q40 -29 67 -73t27 -95q0 -44 -17.5 -82t-48 -67t-71 -45.5t-86.5 -16.5t-86.5 16.5t-71 45.5t-48 67t-17.5 82q0 51 23.5 95t68.5 73q-36 27 -56 64.5t-20 82.5q0 40 16.5 76t44.5 62t65.5 41.5t80.5 15.5t80.5 -15.5t65.5 -41.5t44.5 -62t16.5 -76
q0 -45 -22.5 -82.5t-55.5 -64.5zM381 516q0 21 -8 39t-22.5 31.5t-33.5 21.5t-40 8t-40 -8t-33 -21.5t-22 -31.5t-8 -39t8 -39t22 -32t33 -22t40 -8t40 8t33.5 22t22.5 32t8 39zM397 201q0 24 -9.5 45.5t-26 37.5t-38 25.5t-46.5 9.5t-46.5 -9.5t-38 -25.5t-26 -37.5
t-9.5 -45.5t9.5 -45t26 -37t38 -25t46.5 -9t46.5 9t38 25t26 37t9.5 45z" />
    <glyph glyph-name="nine" unicode="9" horiz-adv-x="527" 
d="M468 315q0 -101 -25.5 -164t-66 -99t-90 -49t-96.5 -13q-18 0 -35 2t-34 5q-18 4 -29.5 17t-11.5 31q0 20 14 34t36 14q11 0 24.5 -4t35.5 -4q30 0 59.5 7.5t53.5 29.5t40.5 61.5t20.5 103.5q-26 -21 -53 -29t-57 -8q-44 0 -82.5 17t-67.5 46t-46 68t-17 83v34
q0 44 17 82.5t46 67.5t67.5 46t82.5 17t83 -17t68 -46t46 -67.5t17 -82.5v-183zM365 506q0 22 -9 42t-24 35t-35 24t-43 9t-43 -9t-35 -24t-23.5 -35t-8.5 -42v-50q0 -23 8.5 -43t23.5 -35t35 -24t43 -9t43 9t35 24t24 35t9 43v50z" />
    <glyph glyph-name="A" unicode="A" horiz-adv-x="584" 
d="M415 176h-246l-55 -152q-6 -16 -19 -25t-30 -9q-20 0 -35.5 15t-15.5 37q0 8 3 17l220 614q6 16 21 27t34 11q17 0 33 -11t22 -28l220 -613q3 -8 3 -17q0 -20 -14.5 -36t-37.5 -16q-16 0 -29.5 9t-19.5 25zM292 519l-87 -242h174z" />
    <glyph glyph-name="B" unicode="B" horiz-adv-x="557" 
d="M133 0q-27 0 -46 19t-19 45v573q0 26 19 45t46 19h163q44 0 80.5 -14t62.5 -39.5t40 -61.5t14 -79q0 -40 -16.5 -75.5t-50.5 -63.5q45 -30 65.5 -72.5t20.5 -87.5q0 -47 -15 -85.5t-42.5 -65.5t-66 -42t-85.5 -15h-170zM281 414q46 0 76 27t30 66q0 45 -22.5 69t-68.5 24
h-122v-186h107zM303 101q51 0 77 28t26 79q0 22 -9 41t-24.5 33t-37.5 22.5t-48 8.5h-113v-212h129z" />
    <glyph glyph-name="C" unicode="C" horiz-adv-x="513" 
d="M50 452q0 58 18.5 106t52.5 82t81.5 52.5t105.5 18.5q81 0 154 -47q24 -16 24 -43q0 -20 -15 -34.5t-37 -14.5q-13 0 -27 8q-24 15 -48.5 24t-50.5 9q-73 0 -112.5 -44t-39.5 -117v-203q0 -73 39.5 -117t112.5 -44q26 0 50 9.5t48 24.5q13 9 29 9q20 0 35.5 -14t15.5 -36
q0 -28 -24 -44q-73 -47 -154 -47q-58 0 -105.5 18.5t-81.5 52.5t-52.5 82t-18.5 106v203z" />
    <glyph glyph-name="D" unicode="D" horiz-adv-x="590" 
d="M133 0q-27 0 -46 19t-19 45v573q0 26 19 45t46 19h132q61 0 112 -19.5t87 -55.5t56 -86t20 -111v-157q0 -61 -20 -111t-56 -86t-87 -55.5t-112 -19.5h-132zM434 431q0 80 -43.5 124.5t-124.5 44.5h-92v-499h92q81 0 124.5 45t43.5 124v161z" />
    <glyph glyph-name="E" unicode="E" horiz-adv-x="514" 
d="M133 0q-26 0 -45.5 18.5t-19.5 45.5v573q0 26 19 45t46 19h290q22 0 37 -15t15 -37q0 -21 -15 -35t-37 -14h-249v-186h236q22 0 37 -14.5t15 -36.5q0 -21 -15 -35.5t-37 -14.5h-236v-212h256q21 0 36.5 -14.5t15.5 -35.5q0 -22 -15.5 -36.5t-36.5 -14.5h-297z" />
    <glyph glyph-name="F" unicode="F" horiz-adv-x="486" 
d="M174 313v-271q0 -22 -15.5 -37t-36.5 -15q-22 0 -38 15t-16 37v595q0 26 19 45t46 19h287q22 0 37 -14.5t15 -36.5q0 -21 -15 -35.5t-37 -14.5h-246v-186h233q22 0 37 -14.5t15 -36.5q0 -21 -15 -35.5t-37 -14.5h-233z" />
    <glyph glyph-name="G" unicode="G" horiz-adv-x="575" 
d="M419 291h-98q-21 0 -36 14.5t-15 36.5q0 21 15 36t36 15h139q27 0 46 -19t19 -46v-244q0 -20 -10.5 -35.5t-27.5 -23.5q-36 -16 -83.5 -25.5t-95.5 -9.5q-58 0 -105.5 18.5t-81.5 52.5t-52.5 82t-18.5 106v203q0 58 18.5 106t52.5 82t81.5 52.5t105.5 18.5q42 0 86.5 -12
t79.5 -33q12 -8 18.5 -20t6.5 -26q0 -20 -15 -34t-37 -14q-14 0 -27 8q-20 12 -51 22.5t-61 10.5q-73 0 -112.5 -42t-39.5 -115v-212q0 -73 39.5 -114.5t112.5 -41.5q29 0 57 5t54 13v185z" />
    <glyph glyph-name="H" unicode="H" horiz-adv-x="608" 
d="M434 313h-260v-270q0 -22 -15.5 -37.5t-36.5 -15.5q-22 0 -38 15.5t-16 37.5v615q0 22 15.5 37.5t37.5 15.5q21 0 37 -15.5t16 -37.5v-244h260v244q0 22 15.5 37.5t37.5 15.5t37.5 -15.5t15.5 -37.5v-615q0 -22 -15 -37.5t-37 -15.5t-38 15.5t-16 37.5v270z" />
    <glyph glyph-name="I" unicode="I" horiz-adv-x="242" 
d="M68 658q0 22 15.5 37.5t37.5 15.5q21 0 37 -15.5t16 -37.5v-615q0 -22 -16 -37.5t-37 -15.5q-22 0 -37.5 15.5t-15.5 37.5v615z" />
    <glyph glyph-name="J" unicode="J" horiz-adv-x="393" 
d="M224 659q0 22 15.5 37t36.5 15q22 0 38 -15t16 -37v-472q0 -41 -15.5 -76.5t-42.5 -62.5q-26 -27 -62 -42.5t-77 -15.5q-17 0 -34.5 1.5t-32.5 4.5q-20 4 -31.5 17t-11.5 31q0 24 15.5 37t33.5 13q12 0 25.5 -3t35.5 -3q20 0 35 7t28 20t20.5 32.5t7.5 39.5v472z" />
    <glyph glyph-name="K" unicode="K" horiz-adv-x="528" 
d="M174 295v-252q0 -22 -16 -37.5t-37 -15.5q-22 0 -37.5 15.5t-15.5 37.5v615q0 22 15.5 37.5t37.5 15.5q21 0 37 -15.5t16 -37.5v-227l237 263q8 8 18 12.5t21 4.5q20 0 35.5 -14.5t15.5 -37.5q0 -20 -13 -34l-240 -262l253 -287q13 -14 13 -34t-15 -36t-37 -16
q-11 0 -21 4.5t-18 13.5z" />
    <glyph glyph-name="L" unicode="L" horiz-adv-x="496" 
d="M133 0q-27 0 -46 19.5t-19 45.5v593q0 22 16 37.5t37 15.5q22 0 37.5 -16t15.5 -38v-556h256q22 0 37 -14.5t15 -35.5q0 -22 -14.5 -36.5t-36.5 -14.5h-298z" />
    <glyph glyph-name="M" unicode="M" horiz-adv-x="750" 
d="M576 480l-150 -272q-8 -14 -21.5 -22t-29.5 -8q-17 0 -30 8t-21 22l-150 272v-437q0 -22 -16 -37.5t-37 -15.5q-22 0 -37.5 15.5t-15.5 37.5v610q0 24 17.5 41t40.5 17q17 0 30.5 -8.5t21.5 -22.5l197 -352l197 352q8 14 22 22.5t30 8.5q24 0 41 -17t17 -41v-610
q0 -22 -16 -37.5t-38 -15.5q-21 0 -36.5 15.5t-15.5 37.5v437z" />
    <glyph glyph-name="N" unicode="N" horiz-adv-x="614" 
d="M174 483v-441q0 -22 -15.5 -37t-36.5 -15q-22 0 -38 15t-16 37v611q0 24 17.5 41t40.5 17q35 0 51 -29l263 -464v441q0 22 16 37t38 15q21 0 36.5 -15t15.5 -37v-611q0 -25 -17.5 -41.5t-40.5 -16.5q-17 0 -29.5 8.5t-20.5 21.5z" />
    <glyph glyph-name="O" unicode="O" horiz-adv-x="591" 
d="M541 236q0 -55 -18 -100.5t-50 -77.5t-77 -50t-100 -18t-100.5 18t-77.5 50t-50 77.5t-18 100.5v229q0 55 18 100.5t50 77.5t77.5 50t100.5 18t100 -18t77 -50t50 -77.5t18 -100.5v-229zM435 471q0 67 -36 104.5t-103 37.5t-103.5 -37.5t-36.5 -104.5v-241
q0 -67 36.5 -104.5t103.5 -37.5t103 37.5t36 104.5v241z" />
    <glyph glyph-name="P" unicode="P" horiz-adv-x="544" 
d="M68 637q0 26 19 45t46 19h167q47 0 86 -15.5t67 -43.5t43.5 -67.5t15.5 -87.5q0 -47 -15 -85.5t-43 -66t-67 -42.5t-87 -15h-126v-235q0 -22 -16 -37.5t-37 -15.5q-22 0 -37.5 15.5t-15.5 37.5v594zM300 379q19 0 38 4.5t34 16.5t24.5 33t9.5 54q0 53 -27 83t-79 30h-126
v-221h126z" />
    <glyph glyph-name="Q" unicode="Q" horiz-adv-x="597" 
d="M222 -1q-79 22 -125.5 84t-46.5 153v229q0 55 18 100.5t50 77.5t77.5 50t100.5 18t100 -18t77 -50t50 -77.5t18 -100.5v-229q0 -63 -22.5 -113t-69.5 -82l154 -41q17 -5 27.5 -18.5t10.5 -30.5q0 -20 -14.5 -36.5t-37.5 -16.5q-4 0 -7 0.5t-7 1.5zM435 469
q0 67 -36 105.5t-103 38.5t-103.5 -38.5t-36.5 -105.5v-237q0 -67 36.5 -105.5t103.5 -38.5t103 38.5t36 105.5v237z" />
    <glyph glyph-name="R" unicode="R" horiz-adv-x="554" 
d="M264 294h-90v-252q0 -22 -16 -37t-37 -15q-22 0 -37.5 15t-15.5 37v595q0 26 19 45t46 19h186q91 0 147 -56q58 -58 58 -150t-57 -147q-35 -33 -87 -47l139 -233q8 -13 8 -27q0 -20 -15.5 -35.5t-36.5 -15.5q-14 0 -25.5 6.5t-18.5 18.5zM319 395q17 0 34.5 4t32 15.5
t23.5 31t9 49.5q0 45 -25.5 75t-73.5 30h-145v-205h145z" />
    <glyph glyph-name="S" unicode="S" horiz-adv-x="503" 
d="M157 347q-59 26 -88.5 70t-29.5 103q0 45 19.5 80t51 60t72 38t83.5 13q42 0 84 -8t81 -25q16 -7 27.5 -18.5t11.5 -32.5q0 -20 -14.5 -34t-35.5 -14q-10 0 -19 4q-9 3 -20.5 8.5t-28 10t-39 8t-52.5 3.5q-18 0 -38.5 -4t-37 -14.5t-27.5 -27.5t-11 -42q0 -35 16.5 -53.5
t46.5 -32.5l114 -50q28 -12 55 -28t47.5 -38t33 -51.5t12.5 -69.5q0 -45 -15.5 -84t-44.5 -67.5t-70 -44.5t-92 -16q-45 0 -92.5 10.5t-86.5 27.5q-31 13 -31 47q0 21 12.5 36t35.5 15q10 0 17.5 -2t14.5 -5q31 -14 63 -22.5t67 -8.5q54 0 84.5 25.5t30.5 75.5
q0 38 -26.5 64t-60.5 41z" />
    <glyph glyph-name="T" unicode="T" horiz-adv-x="514" 
d="M204 600h-148q-22 0 -36.5 14.5t-14.5 35.5q0 22 14.5 36.5t36.5 14.5h401q22 0 37 -14.5t15 -36.5q0 -21 -15 -35.5t-37 -14.5h-147v-557q0 -22 -15.5 -37.5t-37.5 -15.5t-37.5 15.5t-15.5 37.5v557z" />
    <glyph glyph-name="U" unicode="U" horiz-adv-x="616" 
d="M451 658q0 22 15.5 37.5t37.5 15.5q21 0 37 -15.5t16 -37.5v-419q0 -56 -18 -102t-50.5 -78.5t-78.5 -50.5t-102 -18t-102 18t-78.5 50.5t-50.5 78.5t-18 102v419q0 22 16 37.5t38 15.5q21 0 36.5 -15.5t15.5 -37.5v-425q0 -69 37 -107t106 -38t106 38t37 107v425z" />
    <glyph glyph-name="V" unicode="V" horiz-adv-x="555" 
d="M12 642q-3 9 -3 17q0 22 16 37t36 15q16 0 30 -9.5t19 -25.5l167 -505l168 505q5 16 18.5 25.5t29.5 9.5q23 0 38 -16.5t15 -36.5q0 -9 -3 -16l-211 -612q-6 -19 -21.5 -29.5t-33.5 -10.5q-20 0 -34.5 11.5t-20.5 28.5z" />
    <glyph glyph-name="W" unicode="W" horiz-adv-x="804" 
d="M402 486l-112 -452q-5 -20 -21 -32t-35 -12q-20 0 -35.5 12.5t-20.5 30.5l-162 613q-1 4 -1.5 7t-0.5 7q0 21 15.5 36t35.5 15q17 0 31.5 -10.5t19.5 -28.5l117 -461l112 456q5 20 21.5 32t35.5 12q20 0 35.5 -13t20.5 -30l112 -459l118 463q5 18 19 28.5t31 10.5
q22 0 37 -16t15 -36q0 -5 -2 -13l-162 -613q-5 -19 -21.5 -31t-34.5 -12q-20 0 -35.5 13t-20.5 30z" />
    <glyph glyph-name="X" unicode="X" horiz-adv-x="542" 
d="M271 263l-167 -250q-8 -11 -19.5 -17t-23.5 -6q-20 0 -36 15t-16 37q0 15 9 29l192 282l-189 277q-9 13 -9 29q0 20 15 36t37 16q28 0 43 -23l164 -245l164 245q8 11 19.5 17t23.5 6q20 0 35.5 -15.5t15.5 -36.5q0 -16 -9 -29l-189 -277l193 -282q9 -14 9 -29
q0 -20 -15 -36t-37 -16q-28 0 -43 23z" />
    <glyph glyph-name="Y" unicode="Y" horiz-adv-x="522" 
d="M209 307l-193 326q-7 11 -7 26q0 20 14.5 36t36.5 16q14 0 26 -6.5t19 -18.5l156 -274l156 274q7 12 19 18.5t26 6.5q20 0 35.5 -15t15.5 -37q0 -15 -7 -26l-193 -326v-265q0 -22 -15 -37t-37 -15t-37 15t-15 37v265z" />
    <glyph glyph-name="Z" unicode="Z" horiz-adv-x="521" 
d="M76 0q-25 0 -41.5 17.5t-16.5 40.5q0 17 9 31l336 511h-290q-22 0 -37 14.5t-15 35.5q0 22 15 36.5t37 14.5h368q25 0 41.5 -17.5t16.5 -40.5q0 -17 -8 -30l-336 -512h296q22 0 37 -14.5t15 -35.5q0 -22 -15 -36.5t-37 -14.5h-375z" />
    <glyph glyph-name="bracketleft" unicode="[" horiz-adv-x="361" 
d="M111 -145q-20 0 -36 14t-16 37v821q0 20 14.5 36t37.5 16h136q22 0 36.5 -14t14.5 -35q0 -22 -14.5 -35.5t-36.5 -13.5h-85v-728h85q22 0 36.5 -14t14.5 -35t-14.5 -35t-36.5 -14h-136z" />
    <glyph glyph-name="bracketright" unicode="]" horiz-adv-x="366" 
d="M119 -145q-22 0 -36.5 14t-14.5 35t14.5 35t36.5 14h85v728h-85q-22 0 -36.5 13.5t-14.5 35.5q0 21 14.5 35t36.5 14h136q23 0 37.5 -16t14.5 -36v-821q0 -23 -16 -37t-36 -14h-136z" />
    <glyph glyph-name="asciicircum" unicode="^" horiz-adv-x="1" 
d="M-230 673l-86 -59q-6 -4 -11 -4q-9 0 -14 5t-5 13q0 10 8 15l90 62q7 6 18 6t19 -6l89 -62q8 -5 8 -15q0 -8 -5 -13t-13 -5q-6 0 -11 4z" />
    <glyph glyph-name="grave" unicode="`" horiz-adv-x="1" 
d="M-347 638q-24 14 -24 42q0 22 15 35.5t35 13.5q14 0 27 -8l105 -64q25 -16 25 -43q0 -22 -15 -35.5t-35 -13.5q-8 0 -15.5 3t-13.5 7z" />
    <glyph glyph-name="a" unicode="a" horiz-adv-x="496" 
d="M437 77q0 -21 -12 -37.5t-32 -23.5q-37 -13 -78.5 -19.5t-83.5 -6.5q-91 0 -143 44t-52 119q0 72 52 115q52 44 143 44h103v35q0 32 -22 53.5t-61 21.5q-35 0 -58.5 -5.5t-49.5 -21.5q-14 -9 -28 -9q-20 0 -34.5 13t-14.5 32q0 14 6 26t19 20q41 23 80 31.5t93 8.5
q42 0 74.5 -14t54 -37.5t33 -54.5t11.5 -64v-270zM334 217h-103q-33 0 -51.5 -7.5t-27.5 -18t-11 -21.5t-2 -17q0 -7 2 -18.5t11 -22.5t27.5 -19t51.5 -8q26 0 52.5 3.5t50.5 9.5v119z" />
    <glyph glyph-name="b" unicode="b" horiz-adv-x="514" 
d="M464 191q0 -89 -56 -145q-54 -56 -145 -56q-80 0 -156 26q-20 7 -32 23.5t-12 37.5v582q0 22 15 37t37 15q21 0 36 -15t15 -37v-168q23 11 51 18.5t53 7.5q86 0 139 -54q27 -27 41 -64.5t14 -81.5v-126zM361 325q0 46 -25.5 71.5t-72.5 25.5q-53 0 -97 -36v-289
q48 -12 97 -12q47 0 72.5 25t25.5 72v143z" />
    <glyph glyph-name="c" unicode="c" horiz-adv-x="440" 
d="M45 317q0 89 55 144q56 56 145 56q73 0 139 -32q14 -7 21.5 -19.5t7.5 -26.5q0 -19 -14 -33t-35 -14q-7 0 -13 2t-11 4q-22 10 -46 17t-49 7q-46 0 -71.5 -25.5t-25.5 -71.5v-142q0 -47 25.5 -72t71.5 -25q25 0 50.5 7t47.5 18q9 5 22 5q19 0 33.5 -13.5t14.5 -34.5
q0 -14 -8 -26.5t-22 -19.5q-66 -32 -138 -32q-89 0 -145 56q-55 55 -55 145v126z" />
    <glyph glyph-name="d" unicode="d" horiz-adv-x="509" 
d="M45 317q0 44 13.5 81t40.5 64q28 28 65 41.5t81 13.5q26 0 52 -7.5t46 -18.5v168q0 22 14.5 37t36.5 15t37 -15t15 -37v-582q0 -21 -12 -37.5t-32 -23.5q-76 -26 -157 -26q-89 0 -145 56q-55 55 -55 145v126zM343 386q-42 36 -98 36q-46 0 -71.5 -25.5t-25.5 -71.5v-143
q0 -47 25.5 -72t71.5 -25q53 0 98 13v288z" />
    <glyph glyph-name="e" unicode="e" horiz-adv-x="491" 
d="M148 205q0 -31 5 -51.5t15 -34.5q26 -34 77 -34q29 0 55.5 7.5t52.5 18.5q12 5 21 5q19 0 34 -13.5t15 -33.5q0 -14 -6 -26t-20 -19q-71 -34 -152 -34q-89 0 -145 56q-55 55 -55 145v126q0 89 55 144q56 56 145 56q91 0 145 -56q27 -27 41.5 -63.5t14.5 -80.5v-47
q0 -27 -19 -46t-46 -19h-233zM343 300q0 122 -98 122q-48 0 -72.5 -29.5t-24.5 -92.5h195z" />
    <glyph glyph-name="f" unicode="f" horiz-adv-x="329" 
d="M63 562q0 31 11.5 58t32 47t47.5 32t58 12q15 0 30 -1.5t30 -3.5q19 -3 31 -17t12 -33q0 -20 -14.5 -33.5t-35.5 -13.5q-5 0 -9 1t-9 2t-13 2t-22 1q-19 0 -32.5 -13t-13.5 -32v-63h98q22 0 36.5 -14t14.5 -35q0 -22 -15 -35.5t-36 -13.5h-98v-367q0 -22 -15 -37t-36 -15
q-22 0 -37 15t-15 37v520z" />
    <glyph glyph-name="g" unicode="g" horiz-adv-x="509" 
d="M343 16q-23 -11 -47.5 -18.5t-50.5 -7.5q-89 0 -145 56q-55 55 -55 145v126q0 89 55 144q56 56 145 56q81 0 157 -26q20 -7 32 -23.5t12 -37.5v-453q0 -88 -56 -144q-54 -56 -145 -56q-77 0 -145 31q-14 7 -22.5 19t-8.5 27q0 20 14.5 34t35.5 14q5 0 11.5 -2t11.5 -4
q25 -11 50.5 -17.5t52.5 -6.5q47 0 72.5 29.5t25.5 75.5v39zM343 409q-23 6 -47.5 9.5t-50.5 3.5q-46 0 -71.5 -25.5t-25.5 -71.5v-143q0 -47 25.5 -72t71.5 -25q56 0 98 36v288z" />
    <glyph glyph-name="h" unicode="h" horiz-adv-x="523" 
d="M361 325q0 46 -25.5 71.5t-72.5 25.5q-53 0 -97 -36v-344q0 -22 -15 -37t-36 -15q-22 0 -37 15t-15 37v617q0 22 15 37t37 15q21 0 36 -15t15 -37v-168q23 11 51 18.5t53 7.5q45 0 78 -13t61 -41q27 -27 41 -64.5t14 -81.5v-275q0 -22 -15 -37t-37 -15t-36.5 15t-14.5 37
v283z" />
    <glyph glyph-name="i" unicode="i" horiz-adv-x="242" 
d="M179 653q0 -24 -17 -41t-41 -17t-41 17t-17 41t17 41t41 17t41 -17t17 -41zM69 465q0 22 15.5 37t36.5 15q22 0 36.5 -15t14.5 -37v-423q0 -22 -14.5 -37t-36.5 -15q-21 0 -36.5 15t-15.5 37v423z" />
    <glyph glyph-name="j" unicode="j" horiz-adv-x="260" 
d="M201 653q0 -24 -17 -41t-41 -17t-41 17t-17 41t17 41t41 17t41 -17t17 -41zM91 465q0 22 15 37t37 15q21 0 36 -15t15 -37v-480q0 -72 -35.5 -125t-98.5 -74q-7 -2 -16 -4t-17 -2q-19 0 -34 13t-15 36q0 18 11 31t29 17q35 8 54 37t19 71v480z" />
    <glyph glyph-name="k" unicode="k" horiz-adv-x="459" 
d="M171 215v-173q0 -22 -15 -37t-36 -15q-22 0 -37 15t-15 37v617q0 22 15 37t37 15q21 0 36 -15t15 -37v-321l178 165q14 14 36 14q20 0 35 -15t15 -37t-17 -37l-171 -152l182 -200q7 -7 9.5 -16t2.5 -18q0 -20 -14 -36t-36 -16q-25 0 -40 18z" />
    <glyph glyph-name="l" unicode="l" horiz-adv-x="239" 
d="M68 659q0 22 15 37t37 15q21 0 36 -15t15 -37v-617q0 -22 -15 -37t-36 -15q-22 0 -37 15t-15 37v617z" />
    <glyph glyph-name="m" unicode="m" horiz-adv-x="775" 
d="M613 336q0 18 -7 33.5t-18.5 27t-27 18.5t-33.5 7q-23 0 -45 -7t-41 -19v-354q0 -22 -15 -37t-37 -15q-21 0 -36 15t-15 37v307q0 22 -6.5 36t-18 22t-26.5 11.5t-31 3.5q-27 0 -46.5 -3.5t-43.5 -10.5v-366q0 -22 -15 -37t-36 -15q-22 0 -37 15t-15 37v385
q0 20 11.5 36.5t30.5 24.5q39 15 78 22t83 7q36 0 67 -10.5t54 -30.5q31 20 66.5 30.5t73.5 10.5q40 0 75 -14.5t60 -39.5t39.5 -60t14.5 -75v-286q0 -22 -15 -37t-37 -15t-36.5 15t-14.5 37v294z" />
    <glyph glyph-name="n" unicode="n" horiz-adv-x="523" 
d="M361 325q0 46 -25.5 71.5t-72.5 25.5q-25 0 -49.5 -3.5t-47.5 -9.5v-367q0 -22 -15 -37t-36 -15q-22 0 -37 15t-15 37v388q0 21 12 37.5t32 23.5q75 26 156 26q91 0 145 -56q27 -27 41.5 -63.5t14.5 -80.5v-275q0 -22 -15 -37t-37 -15t-36.5 15t-14.5 37v283z" />
    <glyph glyph-name="o" unicode="o" horiz-adv-x="510" 
d="M465 200q0 -94 -58 -152t-152 -58t-152 58t-58 152v107q0 94 58 152t152 58t152 -58t58 -152v-107zM362 315q0 48 -28.5 77.5t-78.5 29.5q-51 0 -79 -28t-28 -79v-124q0 -51 28 -78.5t79 -27.5t79 27.5t28 78.5v124z" />
    <glyph glyph-name="p" unicode="p" horiz-adv-x="514" 
d="M63 430q0 21 12 38t32 23q38 12 76.5 19t79.5 7q91 0 145 -56q27 -27 41.5 -63.5t14.5 -80.5v-126q0 -45 -14 -82.5t-41 -64.5q-53 -54 -139 -54q-25 0 -53 7.5t-51 18.5v-187q0 -22 -15 -37t-36 -15q-22 0 -37 15t-15 37v601zM361 325q0 46 -25.5 71.5t-72.5 25.5
q-49 0 -97 -12v-290q43 -35 97 -35q47 0 72.5 25t25.5 72v143z" />
    <glyph glyph-name="q" unicode="q" horiz-adv-x="509" 
d="M402 491q20 -6 32 -23t12 -38v-601q0 -22 -15 -37t-37 -15q-21 0 -36 15t-15 37v187q-23 -11 -51 -18.5t-53 -7.5q-86 0 -139 54q-27 27 -41 64.5t-14 82.5v126q0 44 14.5 80.5t41.5 63.5q54 56 145 56q41 0 79.5 -7t76.5 -19zM246 85q54 0 97 35v290q-48 12 -97 12
q-47 0 -72.5 -25.5t-25.5 -71.5v-143q0 -47 25.5 -72t72.5 -25z" />
    <glyph glyph-name="r" unicode="r" horiz-adv-x="342" 
d="M63 368q0 32 11.5 59t31.5 47t47 31.5t59 11.5q35 0 75 -8q18 -4 29.5 -17.5t11.5 -31.5q0 -20 -13.5 -34t-35.5 -14h-8t-9 2q-12 3 -25 5.5t-25 2.5q-19 0 -32.5 -13.5t-13.5 -32.5v-334q0 -22 -15 -37t-36 -15q-22 0 -37 15t-15 37v326z" />
    <glyph glyph-name="s" unicode="s" horiz-adv-x="431" 
d="M138 229q-41 15 -68.5 47.5t-27.5 89.5q0 33 13 60.5t36 48t54.5 31.5t69.5 11q51 0 81 -7t55 -18q15 -6 24 -18.5t9 -28.5q0 -20 -14 -34t-34 -14q-12 0 -24 5q-19 9 -46.5 14.5t-52.5 5.5q-31 0 -49.5 -14t-18.5 -40q0 -20 12.5 -32t28.5 -17l98 -32q50 -17 78 -51
t28 -89q0 -33 -13 -61.5t-36 -50t-56 -33.5t-73 -12q-45 0 -80.5 7.5t-63.5 20.5q-14 7 -22.5 19t-8.5 27q0 20 14.5 35t35.5 15q5 0 11.5 -2t11.5 -4q20 -11 45.5 -17t58.5 -6q73 0 73 52q0 28 -19.5 40t-47.5 22z" />
    <glyph glyph-name="t" unicode="t" horiz-adv-x="342" 
d="M63 659q0 22 15 37t37 15q21 0 36 -15t15 -37v-152h97q22 0 37 -14t15 -35q0 -23 -14.5 -36.5t-37.5 -13.5h-97v-261q0 -29 13 -45.5t33 -16.5q11 0 18 1t12.5 2.5t10.5 3t12 1.5q19 0 34.5 -12.5t15.5 -35.5q0 -19 -12.5 -32t-31.5 -17q-30 -6 -59 -6q-31 0 -58 11.5
t-47.5 32t-32 49t-11.5 63.5v513z" />
    <glyph glyph-name="u" unicode="u" horiz-adv-x="523" 
d="M357 465q0 22 14.5 37t36.5 15t37 -15t15 -37v-388q0 -21 -12 -37.5t-32 -23.5q-75 -26 -157 -26q-44 0 -81.5 13t-65.5 41q-27 27 -40 64.5t-13 82.5v274q0 22 15 37t37 15q21 0 36 -15t15 -37v-282q0 -47 25.5 -72t71.5 -25q51 0 98 12v367z" />
    <glyph glyph-name="v" unicode="v" horiz-adv-x="439" 
d="M17 448q-3 9 -3 17q0 20 14.5 36t36.5 16q16 0 29.5 -8.5t19.5 -25.5l109 -327l101 326q5 16 18.5 25.5t29.5 9.5q20 0 36.5 -14.5t16.5 -37.5q0 -9 -3 -16l-142 -418q-6 -18 -21 -29.5t-35 -11.5t-35 13t-20 26z" />
    <glyph glyph-name="w" unicode="w" horiz-adv-x="705" 
d="M353 319l-83 -286q-5 -19 -20.5 -31t-35.5 -12t-35 11.5t-21 29.5l-133 419q-2 5 -2 15q0 20 14 36t37 16q17 0 31 -9.5t19 -26.5l89 -304l84 297q5 19 20.5 31t35.5 12t35.5 -13.5t19.5 -27.5l84 -299l89 304q5 17 19 26.5t31 9.5q20 0 35.5 -14.5t15.5 -37.5
q0 -10 -2 -15l-133 -418q-6 -19 -21 -30.5t-34 -11.5q-20 0 -35.5 12t-20.5 30z" />
    <glyph glyph-name="x" unicode="x" horiz-adv-x="447" 
d="M223 168l-106 -156q-16 -22 -42 -22q-20 0 -36 15t-16 37q0 15 9 29l131 185l-128 180q-9 13 -9 29q0 20 15 36t37 16q26 0 42 -22l103 -151l103 151q8 11 19.5 16.5t23.5 5.5q21 0 36 -15t15 -37q0 -16 -9 -29l-128 -180l131 -185q10 -13 10 -29q0 -21 -15.5 -36.5
t-37.5 -15.5q-12 0 -23 5.5t-19 16.5z" />
    <glyph glyph-name="y" unicode="y" horiz-adv-x="457" 
d="M188 20l-165 427q-2 5 -3 9.5t-1 9.5q0 20 15.5 35.5t37.5 15.5q16 0 29 -9t18 -24l120 -329l103 327q5 16 18.5 25.5t29.5 9.5q20 0 36.5 -14.5t16.5 -37.5q0 -9 -3 -16l-179 -535q-20 -62 -70 -99.5t-122 -37.5q-20 0 -35.5 13t-15.5 36q0 20 14.5 33.5t34.5 14.5
q33 2 59 16.5t37 47.5z" />
    <glyph glyph-name="z" unicode="z" horiz-adv-x="455" 
d="M85 0q-24 0 -41 17t-17 41q0 19 12 35l246 316h-204q-22 0 -36.5 14t-14.5 35t14.5 35t36.5 14h285q24 0 41 -17t17 -41q0 -20 -10 -33l-248 -318h210q22 0 37 -13.5t15 -34.5q0 -22 -14.5 -36t-36.5 -14h-292z" />
    <glyph glyph-name="dieresis" unicode="&#xa8;" horiz-adv-x="1" 
d="M-291 661q0 -24 -17 -41t-41 -17t-41 17t-17 41t17 41t41 17t41 -17t17 -41zM-161 603q-25 0 -42 17t-17 41t17 41t42 17q24 0 41 -17t17 -41t-17 -41t-41 -17z" />
    <glyph glyph-name="ordfeminine" unicode="&#xaa;" horiz-adv-x="365" 
d="M300 438q0 -14 -8.5 -26t-22.5 -17q-44 -15 -91 -15q-57 0 -89.5 28t-32.5 78t32.5 74t89.5 24h44v22q0 11 -11 21.5t-28 11.5q-31 0 -61 -12q-5 -2 -13 -2q-14 0 -24.5 10.5t-10.5 25.5q0 25 26 35q42 15 83 15q21 0 41.5 -7.5t37.5 -21t27.5 -33t10.5 -43.5v-168z
M222 516h-44q-17 0 -25.5 -3t-13 -8t-5 -10.5t-0.5 -9.5q0 -5 0.5 -11.5t5 -12t13 -9.5t25.5 -4q25 0 44 4v64z" />
    <glyph glyph-name="acute" unicode="&#xb4;" horiz-adv-x="1" 
d="M-269 575q-6 -4 -13.5 -7t-15.5 -3q-20 0 -35 13.5t-15 35.5q0 27 25 43l105 64q13 8 27 8q20 0 35 -13.5t15 -35.5q0 -28 -24 -42z" />
    <glyph glyph-name="mu" unicode="&#xb5;" horiz-adv-x="556" 
d="M381 465q0 22 14.5 37t36.5 15t37 -15t15 -37v-388q0 -20 -12 -37.5t-32 -23.5q-37 -12 -76 -19t-81 -7q-26 0 -50.5 6.5t-46.5 23.5v-191q0 -22 -15 -37t-36 -15q-22 0 -37 15t-15 37v636q0 22 15 37t37 15q21 0 36 -15t15 -37v-283q0 -45 25 -71t72 -26q53 0 98 12v368
z" />
    <glyph glyph-name="periodcentered" unicode="&#xb7;" horiz-adv-x="520" 
d="M260 190q-27 0 -46 19t-19 46q0 26 19 45t46 19q26 0 45 -19t19 -45q0 -27 -19 -46t-45 -19z" />
    <glyph glyph-name="ordmasculine" unicode="&#xba;" horiz-adv-x="367" 
d="M311 507q0 -57 -35.5 -92t-92.5 -35t-92 35t-35 92v76q0 57 35 92.5t92 35.5t92.5 -35.5t35.5 -92.5v-76zM233 589q0 50 -50 50q-49 0 -49 -50v-88q0 -49 49 -49q50 0 50 49v88z" />
    <glyph glyph-name="onehalf" unicode="&#xbd;" horiz-adv-x="873" 
d="M581 694q5 8 14 12.5t18 4.5q14 0 26 -10.5t12 -27.5q0 -13 -7 -23l-445 -643q-12 -17 -32 -17q-15 0 -27 11t-12 28q0 12 7 22zM130 605l-31 -17q-12 -7 -23 -7q-16 0 -28 11t-12 28q0 23 21 35l89 50q5 2 10.5 4t11.5 2q20 0 33 -13.5t13 -32.5v-337q0 -17 -12.5 -29.5
t-29.5 -12.5t-29.5 12.5t-12.5 29.5v277zM592 0q-20 0 -33 13t-13 32q0 16 10 29l137 162q8 10 16.5 23t8.5 28q0 20 -11.5 33.5t-37.5 13.5q-17 0 -28.5 -3t-28.5 -11q-10 -5 -20 -5q-16 0 -28 10.5t-12 28.5q0 25 23 36q29 14 53 17.5t45 3.5q57 0 93 -34.5t36 -89.5
q0 -26 -12 -52.5t-32 -50.5l-90 -104h95q18 0 30 -11.5t12 -28.5t-12 -28.5t-30 -11.5h-171z" />
    <glyph glyph-name="Agrave" unicode="&#xc0;" horiz-adv-x="584" 
d="M415 176h-246l-55 -152q-6 -16 -19 -25t-30 -9q-20 0 -35.5 15t-15.5 37q0 8 3 17l220 614q6 16 21 27t34 11q17 0 33 -11t22 -28l220 -613q3 -8 3 -17q0 -20 -14.5 -36t-37.5 -16q-16 0 -29.5 9t-19.5 25zM292 519l-87 -242h174zM196 825q-24 14 -24 42q0 22 15 35.5
t35 13.5q14 0 27 -8l105 -64q25 -16 25 -43q0 -22 -15 -35.5t-35 -13.5q-8 0 -15.5 3t-13.5 7z" />
    <glyph glyph-name="Edieresis" unicode="&#xcb;" horiz-adv-x="514" 
d="M133 0q-26 0 -45.5 18.5t-19.5 45.5v573q0 26 19 45t46 19h290q22 0 37 -15t15 -37q0 -21 -15 -35t-37 -14h-249v-186h236q22 0 37 -14.5t15 -36.5q0 -21 -15 -35.5t-37 -14.5h-236v-212h256q21 0 36.5 -14.5t15.5 -35.5q0 -22 -15.5 -36.5t-36.5 -14.5h-297zM237 848
q0 -24 -17 -41t-41 -17t-41 17t-17 41t17 41t41 17t41 -17t17 -41zM367 790q-25 0 -42 17t-17 41t17 41t42 17q24 0 41 -17t17 -41t-17 -41t-41 -17z" />
    <glyph glyph-name="Icircumflex" unicode="&#xce;" horiz-adv-x="242" 
d="M68 658q0 22 15.5 37.5t37.5 15.5q21 0 37 -15.5t16 -37.5v-615q0 -22 -16 -37.5t-37 -15.5q-22 0 -37.5 15.5t-15.5 37.5v615zM128 811l-70 -49q-7 -5 -13.5 -7.5t-16.5 -2.5q-20 0 -34.5 14t-14.5 35q0 26 22 41l90 62q17 12 37 12q10 0 19.5 -3.5t17.5 -8.5l89 -62
q22 -15 22 -41q0 -21 -14.5 -35t-34.5 -14q-10 0 -16.5 2.5t-13.5 7.5z" />
    <glyph glyph-name="germandbls" unicode="&#xdf;" horiz-adv-x="570" 
d="M335 241q-38 20 -61 52t-23 73q0 25 6.5 44t17 33.5t22 25t22.5 18.5q17 13 24.5 25t7.5 35q0 19 -8 32t-21.5 21.5t-30 12.5t-33.5 4t-34 -5t-30.5 -16t-22.5 -29t-9 -44v-480q0 -21 -15 -36t-36 -15q-22 0 -37 15t-15 36v480q0 41 15 76t41.5 60t63 39t79.5 14
t79 -12.5t62 -34t40.5 -52t14.5 -66.5q0 -29 -6.5 -49.5t-16.5 -35.5t-21.5 -25t-21.5 -18q-19 -15 -26.5 -26t-7.5 -28q0 -13 8.5 -24t18.5 -16l67 -34q42 -21 66 -60t24 -84q0 -32 -12.5 -60t-33.5 -49t-49.5 -33.5t-61.5 -12.5q-61 0 -122 29q-14 7 -21.5 20t-7.5 27
q0 20 14.5 32.5t36.5 12.5q14 0 23 -5q21 -10 36 -15.5t35 -5.5q23 0 41.5 15t18.5 45q0 26 -13 41t-21 19z" />
    <glyph glyph-name="agrave" unicode="&#xe0;" horiz-adv-x="496" 
d="M437 77q0 -21 -12 -37.5t-32 -23.5q-37 -13 -78.5 -19.5t-83.5 -6.5q-91 0 -143 44t-52 119q0 72 52 115q52 44 143 44h103v35q0 32 -22 53.5t-61 21.5q-35 0 -58.5 -5.5t-49.5 -21.5q-14 -9 -28 -9q-20 0 -34.5 13t-14.5 32q0 14 6 26t19 20q41 23 80 31.5t93 8.5
q42 0 74.5 -14t54 -37.5t33 -54.5t11.5 -64v-270zM334 217h-103q-33 0 -51.5 -7.5t-27.5 -18t-11 -21.5t-2 -17q0 -7 2 -18.5t11 -22.5t27.5 -19t51.5 -8q26 0 52.5 3.5t50.5 9.5v119zM156 638q-24 14 -24 42q0 22 15 35.5t35 13.5q14 0 27 -8l105 -64q25 -16 25 -43
q0 -22 -15 -35.5t-35 -13.5q-8 0 -15.5 3t-13.5 7z" />
    <glyph glyph-name="aacute" unicode="&#xe1;" horiz-adv-x="496" 
d="M437 77q0 -21 -12 -37.5t-32 -23.5q-37 -13 -78.5 -19.5t-83.5 -6.5q-91 0 -143 44t-52 119q0 72 52 115q52 44 143 44h103v35q0 32 -22 53.5t-61 21.5q-35 0 -58.5 -5.5t-49.5 -21.5q-14 -9 -28 -9q-20 0 -34.5 13t-14.5 32q0 14 6 26t19 20q41 23 80 31.5t93 8.5
q42 0 74.5 -14t54 -37.5t33 -54.5t11.5 -64v-270zM334 217h-103q-33 0 -51.5 -7.5t-27.5 -18t-11 -21.5t-2 -17q0 -7 2 -18.5t11 -22.5t27.5 -19t51.5 -8q26 0 52.5 3.5t50.5 9.5v119zM234 575q-6 -4 -13.5 -7t-15.5 -3q-20 0 -35 13.5t-15 35.5q0 27 25 43l105 64
q13 8 27 8q20 0 35 -13.5t15 -35.5q0 -28 -24 -42z" />
    <glyph glyph-name="adieresis" unicode="&#xe4;" horiz-adv-x="496" 
d="M437 77q0 -21 -12 -37.5t-32 -23.5q-37 -13 -78.5 -19.5t-83.5 -6.5q-91 0 -143 44t-52 119q0 72 52 115q52 44 143 44h103v35q0 32 -22 53.5t-61 21.5q-35 0 -58.5 -5.5t-49.5 -21.5q-14 -9 -28 -9q-20 0 -34.5 13t-14.5 32q0 14 6 26t19 20q41 23 80 31.5t93 8.5
q42 0 74.5 -14t54 -37.5t33 -54.5t11.5 -64v-270zM334 217h-103q-33 0 -51.5 -7.5t-27.5 -18t-11 -21.5t-2 -17q0 -7 2 -18.5t11 -22.5t27.5 -19t51.5 -8q26 0 52.5 3.5t50.5 9.5v119zM212 661q0 -24 -17 -41t-41 -17t-41 17t-17 41t17 41t41 17t41 -17t17 -41zM342 603
q-25 0 -42 17t-17 41t17 41t42 17q24 0 41 -17t17 -41t-17 -41t-41 -17z" />
    <glyph glyph-name="eacute" unicode="&#xe9;" horiz-adv-x="491" 
d="M148 205q0 -31 5 -51.5t15 -34.5q26 -34 77 -34q29 0 55.5 7.5t52.5 18.5q12 5 21 5q19 0 34 -13.5t15 -33.5q0 -14 -6 -26t-20 -19q-71 -34 -152 -34q-89 0 -145 56q-55 55 -55 145v126q0 89 55 144q56 56 145 56q91 0 145 -56q27 -27 41.5 -63.5t14.5 -80.5v-47
q0 -27 -19 -46t-46 -19h-233zM343 300q0 122 -98 122q-48 0 -72.5 -29.5t-24.5 -92.5h195zM231 575q-6 -4 -13.5 -7t-15.5 -3q-20 0 -35 13.5t-15 35.5q0 27 25 43l105 64q13 8 27 8q20 0 35 -13.5t15 -35.5q0 -28 -24 -42z" />
    <glyph glyph-name="iacute" unicode="&#xed;" horiz-adv-x="242" 
d="M70 465q0 22 15 37t37 15q21 0 36 -15t15 -37v-423q0 -22 -15 -37t-36 -15q-22 0 -37 15t-15 37v423zM107 575q-6 -4 -13.5 -7t-15.5 -3q-20 0 -35 13.5t-15 35.5q0 27 25 43l105 64q13 8 27 8q20 0 35 -13.5t15 -35.5q0 -28 -24 -42z" />
    <glyph glyph-name="otilde" unicode="&#xf5;" horiz-adv-x="510" 
d="M465 200q0 -94 -58 -152t-152 -58t-152 58t-58 152v107q0 94 58 152t152 58t152 -58t58 -152v-107zM362 315q0 48 -28.5 77.5t-78.5 29.5q-51 0 -79 -28t-28 -79v-124q0 -51 28 -78.5t79 -27.5t79 27.5t28 78.5v124zM402 653q-21 -26 -45 -37q-29 -13 -56 -13
q-41 0 -75 26q-8 6 -17 6q-15 0 -24 -12q-8 -9 -18 -14.5t-21 -5.5q-20 0 -33.5 15t-13.5 33q0 16 9 28q20 26 45 38q14 7 28 9.5t28 2.5q21 0 40 -8t35 -20q7 -6 17 -6q8 0 14 3.5t11 8.5q8 9 17.5 15.5t20.5 6.5q20 0 33.5 -14.5t13.5 -33.5q0 -16 -9 -28z" />
    <glyph glyph-name="odieresis" unicode="&#xf6;" horiz-adv-x="510" 
d="M465 200q0 -94 -58 -152t-152 -58t-152 58t-58 152v107q0 94 58 152t152 58t152 -58t58 -152v-107zM362 315q0 48 -28.5 77.5t-78.5 29.5q-51 0 -79 -28t-28 -79v-124q0 -51 28 -78.5t79 -27.5t79 27.5t28 78.5v124zM219 661q0 -24 -17 -41t-41 -17t-41 17t-17 41t17 41
t41 17t41 -17t17 -41zM349 603q-25 0 -42 17t-17 41t17 41t42 17q24 0 41 -17t17 -41t-17 -41t-41 -17z" />
    <glyph glyph-name="ucircumflex" unicode="&#xfb;" horiz-adv-x="523" 
d="M357 465q0 22 14.5 37t36.5 15t37 -15t15 -37v-388q0 -21 -12 -37.5t-32 -23.5q-75 -26 -157 -26q-44 0 -81.5 13t-65.5 41q-27 27 -40 64.5t-13 82.5v274q0 22 15 37t37 15q21 0 36 -15t15 -37v-282q0 -47 25.5 -72t71.5 -25q51 0 98 12v367zM261 624l-70 -49
q-7 -5 -13.5 -7.5t-16.5 -2.5q-20 0 -34.5 14t-14.5 35q0 26 22 41l90 62q17 12 37 12q10 0 19.5 -3.5t17.5 -8.5l89 -62q22 -15 22 -41q0 -21 -14.5 -35t-34.5 -14q-10 0 -16.5 2.5t-13.5 7.5z" />
    <glyph glyph-name="ydieresis" unicode="&#xff;" horiz-adv-x="457" 
d="M188 20l-165 427q-2 5 -3 9.5t-1 9.5q0 20 15.5 35.5t37.5 15.5q16 0 29 -9t18 -24l120 -329l103 327q5 16 18.5 25.5t29.5 9.5q20 0 36.5 -14.5t16.5 -37.5q0 -9 -3 -16l-179 -535q-20 -62 -70 -99.5t-122 -37.5q-20 0 -35.5 13t-15.5 36q0 20 14.5 33.5t34.5 14.5
q33 2 59 16.5t37 47.5zM192 661q0 -24 -17 -41t-41 -17t-41 17t-17 41t17 41t41 17t41 -17t17 -41zM322 603q-25 0 -42 17t-17 41t17 41t42 17q24 0 41 -17t17 -41t-17 -41t-41 -17z" />
    <glyph glyph-name="lslash" unicode="&#x142;" horiz-adv-x="337" 
d="M116 272l-19 -13q-6 -4 -13.5 -7t-15.5 -3q-20 0 -35 13.5t-15 35.5q0 27 23 42l75 49v270q0 22 14.5 37t36.5 15q21 0 36.5 -15.5t15.5 -37.5v-201l20 14q7 5 14 8t16 3q20 0 35 -13.5t15 -35.5q0 -27 -23 -42l-77 -51v-297q0 -22 -15.5 -37.5t-36.5 -15.5
q-22 0 -36.5 15t-14.5 37v230z" />
    <glyph glyph-name="OE" unicode="&#x152;" horiz-adv-x="883" 
d="M502 0q-18 0 -33.5 9t-23.5 25q-61 -44 -149 -44q-55 0 -100.5 18t-77.5 50t-50 77.5t-18 100.5v229q0 55 18 100.5t50 77.5t77.5 50t100.5 18q44 0 81 -11.5t67 -32.5q8 15 23.5 24.5t34.5 9.5h290q22 0 37 -15t15 -37q0 -21 -15 -35t-37 -14h-250v-186h237
q22 0 37 -14.5t15 -36.5q0 -21 -15 -35.5t-37 -14.5h-237v-212h257q21 0 36.5 -14.5t15.5 -35.5q0 -22 -15.5 -36.5t-36.5 -14.5h-297zM436 471q0 67 -36.5 104.5t-103.5 37.5t-103.5 -37.5t-36.5 -104.5v-241q0 -67 36.5 -104.5t103.5 -37.5t103.5 37.5t36.5 104.5v241z
" />
    <glyph glyph-name="oe" unicode="&#x153;" horiz-adv-x="807" 
d="M464 205q0 -31 5 -51.5t15 -34.5q26 -34 77 -34q29 0 55.5 7.5t52.5 18.5q12 5 21 5q19 0 34 -13.5t15 -33.5q0 -14 -6 -26t-20 -19q-71 -34 -152 -34q-44 0 -81.5 14.5t-69.5 48.5q-31 -33 -70 -48t-85 -15q-94 0 -152 58t-58 152v107q0 94 58 152t152 58q46 0 85 -15
t70 -49q32 35 69.5 49.5t81.5 14.5q91 0 145 -56q56 -56 56 -144v-47q0 -27 -19 -46t-46 -19h-233zM362 315q0 48 -28.5 77.5t-78.5 29.5q-51 0 -79 -28t-28 -79v-124q0 -51 28 -78.5t79 -27.5t79 27.5t28 78.5v124zM659 303q0 63 -25 91t-73 28t-72.5 -28t-24.5 -91h195z
" />
    <glyph glyph-name="Scaron" unicode="&#x160;" horiz-adv-x="503" 
d="M157 347q-59 26 -88.5 70t-29.5 103q0 45 19.5 80t51 60t72 38t83.5 13q42 0 84 -8t81 -25q16 -7 27.5 -18.5t11.5 -32.5q0 -20 -14.5 -34t-35.5 -14q-10 0 -19 4q-9 3 -20.5 8.5t-28 10t-39 8t-52.5 3.5q-18 0 -38.5 -4t-37 -14.5t-27.5 -27.5t-11 -42q0 -35 16.5 -53.5
t46.5 -32.5l114 -50q28 -12 55 -28t47.5 -38t33 -51.5t12.5 -69.5q0 -45 -15.5 -84t-44.5 -67.5t-70 -44.5t-92 -16q-45 0 -92.5 10.5t-86.5 27.5q-31 13 -31 47q0 21 12.5 36t35.5 15q10 0 17.5 -2t14.5 -5q31 -14 63 -22.5t67 -8.5q54 0 84.5 25.5t30.5 75.5
q0 38 -26.5 64t-60.5 41zM297 764q-8 -5 -17.5 -8.5t-19.5 -3.5q-20 0 -37 12l-90 62q-22 15 -22 41q0 21 14.5 35t34.5 14q10 0 16.5 -2.5t13.5 -7.5l70 -49l69 49q7 5 13.5 7.5t16.5 2.5q20 0 34.5 -14t14.5 -35q0 -26 -22 -41z" />
    <glyph glyph-name="scaron" unicode="&#x161;" horiz-adv-x="431" 
d="M138 229q-41 15 -68.5 47.5t-27.5 89.5q0 33 13 60.5t36 48t54.5 31.5t69.5 11q51 0 81 -7t55 -18q15 -6 24 -18.5t9 -28.5q0 -20 -14 -34t-34 -14q-12 0 -24 5q-19 9 -46.5 14.5t-52.5 5.5q-31 0 -49.5 -14t-18.5 -40q0 -20 12.5 -32t28.5 -17l98 -32q50 -17 78 -51
t28 -89q0 -33 -13 -61.5t-36 -50t-56 -33.5t-73 -12q-45 0 -80.5 7.5t-63.5 20.5q-14 7 -22.5 19t-8.5 27q0 20 14.5 35t35.5 15q5 0 11.5 -2t11.5 -4q20 -11 45.5 -17t58.5 -6q73 0 73 52q0 28 -19.5 40t-47.5 22zM252 577q-8 -5 -17.5 -8.5t-19.5 -3.5q-20 0 -37 12
l-90 62q-22 15 -22 41q0 21 14.5 35t34.5 14q10 0 16.5 -2.5t13.5 -7.5l70 -49l69 49q7 5 13.5 7.5t16.5 2.5q20 0 34.5 -14t14.5 -35q0 -26 -22 -41z" />
    <glyph glyph-name="Ydieresis" unicode="&#x178;" horiz-adv-x="522" 
d="M209 307l-193 326q-7 11 -7 26q0 20 14.5 36t36.5 16q14 0 26 -6.5t19 -18.5l156 -274l156 274q7 12 19 18.5t26 6.5q20 0 35.5 -15t15.5 -37q0 -15 -7 -26l-193 -326v-265q0 -22 -15 -37t-37 -15t-37 15t-15 37v265zM225 848q0 -24 -17 -41t-41 -17t-41 17t-17 41t17 41
t41 17t41 -17t17 -41zM355 790q-25 0 -42 17t-17 41t17 41t42 17q24 0 41 -17t17 -41t-17 -41t-41 -17z" />
    <glyph glyph-name="zcaron" unicode="&#x17e;" horiz-adv-x="455" 
d="M85 0q-24 0 -41 17t-17 41q0 19 12 35l246 316h-204q-22 0 -36.5 14t-14.5 35t14.5 35t36.5 14h285q24 0 41 -17t17 -41q0 -20 -10 -33l-248 -318h210q22 0 37 -13.5t15 -34.5q0 -22 -14.5 -36t-36.5 -14h-292zM264 577q-8 -5 -17.5 -8.5t-19.5 -3.5q-20 0 -37 12l-90 62
q-22 15 -22 41q0 21 14.5 35t34.5 14q10 0 16.5 -2.5t13.5 -7.5l70 -49l69 49q7 5 13.5 7.5t16.5 2.5q20 0 34.5 -14t14.5 -35q0 -26 -22 -41z" />
    <glyph glyph-name="florin" unicode="&#x192;" horiz-adv-x="545" 
d="M283 592q9 52 49.5 85.5t95.5 33.5q15 0 29 -1.5t29 -3.5q19 -3 32 -17t13 -33q0 -20 -14.5 -33.5t-36.5 -13.5q-11 0 -24 3.5t-31 3.5q-17 0 -29.5 -10t-15.5 -28l-29 -166h92q21 0 36 -13.5t15 -35.5q0 -21 -15 -35t-36 -14h-108l-73 -414q-5 -26 -17.5 -48.5t-32 -39
t-44 -26t-51.5 -9.5q-15 0 -29.5 1.5t-29.5 3.5q-19 3 -31 16.5t-12 32.5q0 20 14.5 33.5t35.5 13.5q12 0 24.5 -3t28.5 -3t29 11t16 28z" />
    <glyph glyph-name="circumflex" unicode="&#x2c6;" horiz-adv-x="435" 
d="M218 624l-70 -49q-7 -5 -13.5 -7.5t-16.5 -2.5q-20 0 -34.5 14t-14.5 35q0 26 22 41l90 62q17 12 37 12q10 0 19.5 -3.5t17.5 -8.5l89 -62q22 -15 22 -41q0 -21 -14.5 -35t-34.5 -14q-10 0 -16.5 2.5t-13.5 7.5z" />
    <glyph glyph-name="caron" unicode="&#x2c7;" horiz-adv-x="435" 
d="M255 577q-8 -5 -17.5 -8.5t-19.5 -3.5q-20 0 -37 12l-90 62q-22 15 -22 41q0 21 14.5 35t34.5 14q10 0 16.5 -2.5t13.5 -7.5l70 -49l69 49q7 5 13.5 7.5t16.5 2.5q20 0 34.5 -14t14.5 -35q0 -26 -22 -41z" />
    <glyph glyph-name="breve" unicode="&#x2d8;" horiz-adv-x="435" 
d="M343 649q-23 -30 -56.5 -45t-69.5 -15t-69.5 15t-56.5 45q-10 13 -10 30q0 21 14.5 35t34.5 14q23 0 39 -20q8 -11 21.5 -17t26.5 -6t26.5 6t21.5 17q16 20 39 20q20 0 34.5 -14t14.5 -35q0 -17 -10 -30z" />
    <glyph glyph-name="ring" unicode="&#x2da;" horiz-adv-x="1" 
d="M-138 677q0 -24 -9 -45t-25 -37t-37.5 -25t-45.5 -9t-45 9t-37 25t-25 37t-9 45t9 45t25 37t37 25t45 9t45.5 -9t37.5 -25t25 -37t9 -45zM-255 636q17 0 28.5 11.5t11.5 29.5t-11.5 29.5t-28.5 11.5t-28 -12t-11 -29t11 -29t28 -12z" />
    <glyph glyph-name="ogonek" unicode="&#x2db;" horiz-adv-x="330" 
d="M213 0q-9 -9 -19.5 -22.5t-19.5 -28.5t-15 -31t-6 -29q0 -23 20 -23q16 0 25 5.5t23 5.5q20 0 30.5 -13.5t10.5 -29.5q0 -22 -13.5 -34t-32.5 -17q-9 -2 -20.5 -4t-28.5 -2q-18 0 -36 5t-32.5 16t-23 28.5t-8.5 43.5q0 22 6 41.5t15 35.5t19.5 29t20.5 24h85z" />
    <glyph glyph-name="tilde" unicode="&#x2dc;" horiz-adv-x="435" 
d="M364 652q-21 -26 -45 -37q-29 -13 -56 -13q-41 0 -75 26q-8 6 -17 6q-15 0 -24 -12q-8 -9 -18 -14.5t-21 -5.5q-20 0 -33.5 15t-13.5 33q0 16 9 28q20 26 45 38q14 7 28 9.5t28 2.5q21 0 40 -8t35 -20q7 -6 17 -6q8 0 14 3.5t11 8.5q8 9 17.5 15.5t20.5 6.5
q20 0 33.5 -14.5t13.5 -33.5q0 -16 -9 -28z" />
    <glyph glyph-name="hungarumlaut" unicode="&#x2dd;" horiz-adv-x="435" 
d="M126 583q-8 -8 -18 -13t-21 -5q-20 0 -34.5 14t-14.5 34q0 21 15 36l67 65q15 15 35 15q22 0 35.5 -15t13.5 -34q0 -20 -15 -35zM319 583q-8 -8 -18 -13t-21 -5q-20 0 -34.5 14t-14.5 34q0 21 15 36l67 65q15 15 35 15q22 0 35.5 -15t13.5 -34q0 -20 -15 -35z" />
    <glyph glyph-name="pi" unicode="&#x3c0;" horiz-adv-x="555" 
d="M316 409h-91v-367q0 -22 -15 -37t-36 -15q-22 0 -37 15t-15 37v367h-58q-22 0 -37 13.5t-15 35.5q0 21 15 35t37 14h421q21 0 35.5 -14t14.5 -35q0 -22 -14.5 -35.5t-35.5 -13.5h-66v-276q0 -17 12.5 -31t32.5 -14q22 0 37 -13.5t15 -35.5t-15 -35.5t-37 -13.5
q-30 0 -57 11.5t-47.5 31.5t-32 47t-11.5 59v270z" />
    <glyph glyph-name="endash" unicode="&#x2013;" horiz-adv-x="438" 
d="M102 249q-20 0 -34 14.5t-14 34.5t13.5 34.5t34.5 14.5h233q20 0 34.5 -14.5t14.5 -34.5t-14.5 -34.5t-34.5 -14.5h-233z" />
    <glyph glyph-name="quoteleft" unicode="&#x2018;" horiz-adv-x="242" 
d="M101 676q5 16 19 25.5t30 9.5q23 0 37.5 -16t14.5 -36q0 -8 -3 -17l-48 -142q-5 -16 -18.5 -25.5t-30.5 -9.5q-23 0 -37.5 16t-14.5 36q0 8 3 17z" />
    <glyph glyph-name="quoteright" unicode="&#x2019;" horiz-adv-x="242" 
d="M151 500q-5 -16 -19 -25.5t-30 -9.5q-23 0 -37.5 16t-14.5 36q0 8 3 17l48 142q5 16 18.5 25.5t30.5 9.5q23 0 37.5 -16t14.5 -36q0 -8 -3 -17z" />
    <glyph glyph-name="quotesinglbase" unicode="&#x201a;" horiz-adv-x="242" 
d="M151 -89q-5 -17 -19 -26t-30 -9q-24 0 -38 15.5t-14 35.5q0 8 3 17l48 142q5 16 19 25.5t30 9.5q22 0 37 -15.5t15 -35.5q0 -8 -3 -17z" />
    <glyph glyph-name="quotedblleft" unicode="&#x201c;" horiz-adv-x="448" 
d="M155 500q-5 -16 -19 -25.5t-30 -9.5q-23 0 -37.5 16t-14.5 36q0 8 3 17l48 142q5 16 18.5 25.5t30.5 9.5q23 0 37.5 -16t14.5 -36q0 -8 -3 -17zM342 500q-5 -16 -18.5 -25.5t-30.5 -9.5q-20 0 -36 15t-16 37q0 8 3 17l49 142q5 16 18.5 25.5t29.5 9.5q20 0 36.5 -14.5
t16.5 -37.5q0 -8 -3 -17z" />
    <glyph glyph-name="quotedblright" unicode="&#x201d;" horiz-adv-x="430" 
d="M141 500q-5 -16 -19 -25.5t-30 -9.5q-23 0 -37.5 16t-14.5 36q0 8 3 17l48 142q5 16 18.5 25.5t30.5 9.5q23 0 37.5 -16t14.5 -36q0 -8 -3 -17zM328 500q-5 -16 -18.5 -25.5t-30.5 -9.5q-20 0 -36 15t-16 37q0 8 3 17l49 142q5 16 18.5 25.5t29.5 9.5q20 0 36.5 -14.5
t16.5 -37.5q0 -8 -3 -17z" />
    <glyph glyph-name="dagger" unicode="&#x2020;" horiz-adv-x="545" 
d="M220 406h-141q-22 0 -37 14t-15 36q0 21 15 36t37 15h141v152q0 22 15.5 37t37.5 15q21 0 37 -15t16 -37v-152h140q22 0 37 -14.5t15 -35.5q0 -22 -15 -36.5t-37 -14.5h-140v-577q0 -22 -16 -37t-37 -15q-22 0 -37.5 15t-15.5 37v577z" />
    <glyph glyph-name="daggerdbl" unicode="&#x2021;" horiz-adv-x="545" 
d="M325 0v-171q0 -22 -15.5 -37t-36.5 -15q-22 0 -38 15t-16 37v171h-140q-22 0 -37 14.5t-15 36.5q0 21 15 35.5t37 14.5h140v305h-140q-22 0 -37 14.5t-15 36.5q0 21 15 35.5t37 14.5h140v152q0 22 16 37t38 15q21 0 36.5 -15t15.5 -37v-152h141q22 0 37 -14.5t15 -35.5
q0 -22 -15 -36.5t-37 -14.5h-141v-305h141q22 0 37 -14.5t15 -35.5q0 -22 -15 -36.5t-37 -14.5h-141z" />
    <glyph glyph-name="ellipsis" unicode="&#x2026;" horiz-adv-x="808" 
d="M469 57q0 -27 -19 -46t-46 -19t-46 19t-19 46q0 26 19 45t46 19t46 -19t19 -45zM675 -8q-26 0 -45 19t-19 46q0 26 19 45t45 19q27 0 46 -19t19 -45q0 -27 -19 -46t-46 -19zM133 -8q-27 0 -46 19t-19 46q0 26 19 45t46 19q26 0 45 -19t19 -45q0 -27 -19 -46t-45 -19z" />
    <glyph glyph-name="Euro" unicode="&#x20ac;" horiz-adv-x="520" 
d="M205 212q10 -57 40 -92t93 -35q26 0 50.5 8.5t47.5 23.5q7 5 14.5 8t15.5 3q20 0 35 -14t15 -36q0 -25 -24 -41q-72 -47 -154 -47q-53 0 -94.5 16t-71 45t-47 70t-23.5 91h-42q-22 0 -36.5 14t-14.5 35q0 22 14.5 35.5t36.5 13.5h39v85h-39q-22 0 -36.5 13.5t-14.5 34.5
q0 22 14.5 36t36.5 14h42q7 49 25 89t47.5 68.5t70 44.5t93.5 16q82 0 154 -47q24 -16 24 -40q0 -20 -14 -35t-35 -15q-7 0 -15.5 3t-15.5 7q-24 14 -48 23t-50 9q-31 0 -53 -9t-38 -25.5t-25.5 -39t-15.5 -49.5h156q21 0 36 -14t15 -36q0 -21 -15 -34.5t-36 -13.5h-160v-85
h160q21 0 36 -13.5t15 -35.5q0 -21 -15 -35t-36 -14h-157z" />
    <glyph glyph-name="trademark" unicode="&#x2122;" horiz-adv-x="825" 
d="M148 627h-73q-17 0 -28 10.5t-11 26.5q0 17 11 27t28 10h224q17 0 28 -10t11 -27q0 -16 -11 -26.5t-28 -10.5h-73v-325q0 -16 -11.5 -27t-27.5 -11t-27.5 11t-11.5 27v325zM676 527l-67 -135q-5 -11 -15 -17.5t-23 -6.5q-12 0 -22 7t-15 17l-67 135v-225q0 -16 -11 -27
t-28 -11q-16 0 -27 11t-11 27v362q0 18 12.5 30.5t29.5 12.5q13 0 23 -6.5t15 -17.5l101 -202l102 202q5 11 15 17.5t23 6.5q17 0 29.5 -12.5t12.5 -30.5v-362q0 -16 -11 -27t-28 -11q-16 0 -27 11t-11 27v225z" />
    <glyph glyph-name="Omega" unicode="&#x2126;" horiz-adv-x="545" 
d="M371 0q-27 0 -46 19t-19 46v93q0 38 34 57q58 32 58 111v155q0 61 -33 93.5t-93 32.5t-93 -32.5t-33 -93.5v-155q0 -78 59 -111q33 -19 33 -57v-93q0 -27 -19 -46t-45 -19h-79q-22 0 -37 15t-15 37q0 21 15 36t37 15h40v34q-45 31 -68.5 80t-23.5 109v155q0 103 63 166
q64 64 166 64t166 -64t64 -166v-155q0 -60 -23.5 -109t-68.5 -80v-34h40q22 0 37 -15t15 -36q0 -22 -15 -37t-37 -15h-79z" />
    <glyph glyph-name="arrowleft" unicode="&#x2190;" 
d="M1144 351q0 -22 -15 -36.5t-37 -14.5h-754l224 -221q8 -8 11.5 -17.5t3.5 -19.5q0 -20 -14.5 -36t-37.5 -16q-21 0 -36 15l-309 309q-15 15 -15 36q0 22 15 37l309 309q15 15 36 15q20 0 36 -14.5t16 -37.5q0 -21 -15 -36l-224 -222h754q22 0 37 -14.5t15 -35.5z" />
    <glyph glyph-name="arrowup" unicode="&#x2191;" 
d="M655 -168q-22 0 -36.5 15t-14.5 37v754l-221 -224q-8 -8 -17.5 -11.5t-19.5 -3.5q-20 0 -36 14.5t-16 37.5q0 21 15 36l309 309q15 15 36 15q22 0 37 -15l309 -309q15 -15 15 -36q0 -20 -14.5 -36t-37.5 -16q-21 0 -36 15l-222 224v-754q0 -22 -14.5 -37t-35.5 -15z" />
    <glyph glyph-name="arrowright" unicode="&#x2192;" 
d="M165 351q0 21 15 35.5t37 14.5h754l-224 222q-15 15 -15 36q0 23 16 37.5t36 14.5q21 0 36 -15l309 -309q15 -15 15 -37q0 -21 -15 -36l-309 -309q-15 -15 -36 -15q-23 0 -37.5 16t-14.5 36q0 10 3.5 19.5t11.5 17.5l224 221h-754q-22 0 -37 14.5t-15 36.5z" />
    <glyph glyph-name="arrowdown" unicode="&#x2193;" 
d="M654 809q22 0 36.5 -15t14.5 -37v-754l221 224q8 8 17.5 11.5t19.5 3.5q20 0 36 -14.5t16 -37.5q0 -21 -15 -36l-309 -309q-15 -15 -36 -15q-22 0 -37 15l-309 309q-15 15 -15 36q0 20 14.5 36t37.5 16q21 0 36 -15l222 -224v754q0 22 14.5 37t35.5 15z" />
    <glyph glyph-name="uni2196" unicode="&#x2196;" 
d="M958 -2q-21 0 -36 15l-520 520v-312q0 -22 -15 -37t-36 -15q-22 0 -37 15t-15 37v436q0 22 15 37t37 15h436q23 0 37.5 -14t14.5 -36q0 -21 -14.5 -35.5t-37.5 -14.5h-315l523 -523q15 -15 15 -36q0 -23 -16 -37.5t-36 -14.5z" />
    <glyph glyph-name="uni2197" unicode="&#x2197;" 
d="M351 -10q-20 0 -36 14.5t-16 37.5q0 21 15 36l523 523h-315q-23 0 -37.5 14.5t-14.5 35.5q0 22 14.5 36t37.5 14h436q22 0 37 -15t15 -37v-436q0 -22 -15 -37t-37 -15q-21 0 -36 15t-15 37v312l-520 -520q-15 -15 -36 -15z" />
    <glyph glyph-name="uni2198" unicode="&#x2198;" 
d="M351 711q21 0 36 -15l520 -520v312q0 22 15 37t36 15q22 0 37 -15t15 -37v-436q0 -22 -15 -37t-37 -15h-436q-23 0 -37.5 14t-14.5 36q0 21 14.5 35.5t37.5 14.5h315l-523 523q-15 15 -15 36q0 23 16 37.5t36 14.5z" />
    <glyph glyph-name="uni2199" unicode="&#x2199;" 
d="M958 711q20 0 36 -14.5t16 -37.5q0 -21 -15 -36l-523 -523h315q23 0 37.5 -14.5t14.5 -35.5q0 -22 -14.5 -36t-37.5 -14h-436q-22 0 -37 15t-15 37v436q0 22 15 37t37 15q21 0 36 -15t15 -37v-312l520 520q15 15 36 15z" />
    <glyph glyph-name="partialdiff" unicode="&#x2202;" horiz-adv-x="556" 
d="M482 200q0 -94 -58 -152t-152 -58t-152 58t-58 152v94q0 94 58 152t152 58q36 0 69 -9q-19 45 -58 76.5t-92 42.5q-18 4 -28.5 17.5t-10.5 30.5q0 20 14 34.5t35 14.5q7 0 15 -2q81 -19 139 -68.5t90 -126.5q25 -60 31 -119t6 -101v-94zM379 302q0 48 -28.5 77.5
t-78.5 29.5q-51 0 -79 -28t-28 -79v-111q0 -51 28 -78.5t79 -27.5t79 27.5t28 78.5v111z" />
    <glyph glyph-name="Delta" unicode="&#x2206;" horiz-adv-x="545" 
d="M68 0q-27 0 -46 19.5t-19 45.5q0 11 3 20l212 587q6 17 21.5 28t32.5 11q19 0 34 -10.5t21 -27.5l211 -587q4 -9 4 -21q0 -27 -19.5 -46t-45.5 -19h-409zM272 519l-150 -418h301z" />
    <glyph glyph-name="product" unicode="&#x220f;" horiz-adv-x="634" 
d="M447 600h-260v-770q0 -22 -16 -37.5t-37 -15.5q-22 0 -37.5 15.5t-15.5 37.5v819q0 23 16 37.5t36 14.5h368q23 0 37.5 -16t14.5 -36v-819q0 -22 -15.5 -37.5t-37.5 -15.5t-37.5 15.5t-15.5 37.5v770z" />
    <glyph glyph-name="lessequal" unicode="&#x2264;" horiz-adv-x="520" 
d="M89 288q-17 7 -28 23t-11 36q0 18 10 35t30 25l306 124q8 4 19 4q20 0 36 -14.5t16 -37.5q0 -16 -8.5 -29t-23.5 -19l-217 -88l217 -87q15 -6 23.5 -19t8.5 -29q0 -20 -14.5 -36t-37.5 -16q-11 0 -19 4zM98 0q-20 0 -34 14.5t-14 34.5t13.5 34.5t34.5 14.5h320
q20 0 34.5 -14.5t14.5 -34.5t-14.5 -34.5t-34.5 -14.5h-320z" />
    <glyph glyph-name="greaterequal" unicode="&#x2265;" horiz-adv-x="520" 
d="M122 164q-8 -4 -19 -4q-22 0 -36 14t-14 33q0 16 7.5 28.5t22.5 18.5l247 93l-245 93q-32 13 -32 46q0 23 15 36t35 13q11 0 19 -4l308 -124q20 -8 30 -25t10 -35q0 -20 -11 -36t-28 -23zM102 0q-20 0 -34.5 14.5t-14.5 34.5t14.5 34.5t34.5 14.5h320q21 0 34.5 -14.5
t13.5 -34.5t-14 -34.5t-34 -14.5h-320z" />
    <glyph glyph-name="lozenge" unicode="&#x25ca;" horiz-adv-x="545" 
d="M36 317q-5 8 -7 16.5t-2 17.5q0 19 8 32l182 297q10 15 24.5 23t31.5 8q18 0 32.5 -9t22.5 -23l181 -295q5 -8 7 -16.5t2 -16.5q0 -20 -8 -33l-182 -296q-9 -14 -24 -23t-31 -9q-17 0 -32.5 8.5t-23.5 22.5zM408 351l-135 221l-136 -221l136 -222z" />
    <glyph glyph-name="parenleft.cap" horiz-adv-x="311" 
d="M201 -107q-14 0 -26.5 7t-19.5 20q-51 96 -78 206.5t-27 228.5t27.5 227.5t77.5 206.5q7 14 19.5 21t26.5 7q22 0 36.5 -16t14.5 -36q0 -12 -6 -24q-43 -85 -68 -183t-25 -203q0 -106 23.5 -204.5t69.5 -182.5q6 -11 6 -23q0 -22 -15.5 -37t-35.5 -15z" />
    <glyph glyph-name="parenright.cap" horiz-adv-x="315" 
d="M160 -80q-7 -13 -19.5 -20t-26.5 -7q-20 0 -35.5 15t-15.5 37q0 12 6 23q46 84 69.5 182.5t23.5 204.5q0 105 -25 203t-68 183q-6 12 -6 24q0 20 14.5 36t36.5 16q14 0 26.5 -7t19.5 -21q50 -97 77.5 -206.5t27.5 -227.5t-27 -228.5t-78 -206.5z" />
    <glyph glyph-name="bracketleft.cap" horiz-adv-x="361" 
d="M111 -107q-20 0 -36 14t-16 37v821q0 20 14.5 36t37.5 16h136q22 0 36.5 -14t14.5 -35q0 -22 -14.5 -35.5t-36.5 -13.5h-85v-728h85q22 0 36.5 -14t14.5 -35t-14.5 -35t-36.5 -14h-136z" />
    <glyph glyph-name="bracketright.cap" horiz-adv-x="366" 
d="M119 -107q-22 0 -36.5 14t-14.5 35t14.5 35t36.5 14h85v728h-85q-22 0 -36.5 13.5t-14.5 35.5q0 21 14.5 35t36.5 14h136q23 0 37.5 -16t14.5 -36v-821q0 -23 -16 -37t-36 -14h-136z" />
    <glyph glyph-name="hyphen.cap" horiz-adv-x="438" 
d="M102 306q-20 0 -34 14.5t-14 34.5t13.5 34.5t34.5 14.5h233q20 0 34.5 -14.5t14.5 -34.5t-14.5 -34.5t-34.5 -14.5h-233z" />
    <glyph glyph-name="l.alt" horiz-adv-x="280" 
d="M68 659q0 22 15 37t37 15q21 0 36 -15t15 -37v-541q0 -14 10 -23.5t24 -9.5q5 0 10 1t10 1q20 0 35 -13.5t15 -34.5t-14 -33.5t-32 -14.5q-6 -1 -12.5 -1h-11.5q-30 0 -55 9.5t-43.5 27.5t-28.5 43t-10 56v533z" />
    <glyph glyph-name="lslash.alt" horiz-adv-x="337" 
d="M116 659q0 22 15 37t37 15q21 0 36 -15t15 -37v-202l20 14q7 5 14 8t16 3q20 0 35 -13.5t15 -35.5q0 -27 -23 -42l-77 -51v-222q0 -14 10 -23.5t24 -9.5q5 0 10 1t10 1q20 0 35 -13.5t15 -34.5t-14 -33.5t-32 -14.5q-6 -1 -12.5 -1h-11.5q-30 0 -55 9.5t-43.5 27.5
t-28.5 43t-10 56v146l-19 -13q-6 -4 -13.5 -7t-15.5 -3q-20 0 -35 13.5t-15 35.5q0 27 23 42l75 49v270z" />
    <glyph glyph-name="fl.alt" horiz-adv-x="609" 
d="M63 562q0 31 11.5 58t32 47t47.5 32t58 12q15 0 30 -1.5t30 -3.5q19 -3 31 -17t12 -33q0 -20 -14.5 -33.5t-35.5 -13.5q-5 0 -9 1t-9 2t-13 2t-22 1q-19 0 -32.5 -13t-13.5 -32v-63h98q22 0 36.5 -14t14.5 -35q0 -22 -15 -35.5t-36 -13.5h-98v-367q0 -22 -15 -37t-36 -15
q-22 0 -37 15t-15 37v520zM397 659q0 22 15 37t37 15q21 0 36 -15t15 -37v-541q0 -14 10 -23.5t24 -9.5q5 0 10 1t10 1q20 0 35 -13.5t15 -34.5t-14 -33.5t-32 -14.5q-6 -1 -12.5 -1h-11.5q-30 0 -55 9.5t-43.5 27.5t-28.5 43t-10 56v533z" />
    <glyph glyph-name="ampersand.alt" horiz-adv-x="700" 
d="M290 0q-94 0 -151 57q-58 56 -58 151q0 50 22 92.5t68 69.5q-38 26 -55 62t-17 78q0 96 66 151q61 50 163 50q63 0 112 -20q15 -6 24 -18t9 -28q0 -20 -14 -34t-36 -14q-10 0 -22 5q-17 7 -34 10.5t-39 3.5q-47 0 -72.5 -13t-37.5 -31t-14 -35.5t-2 -26.5
q0 -45 34.5 -71.5t85.5 -26.5h303q22 0 37 -13.5t15 -34.5q0 -22 -15 -36t-37 -14h-67v-249q0 -27 -19 -46t-46 -19h-203zM455 314h-149q-26 0 -48 -8t-38.5 -22t-26 -33.5t-9.5 -42.5q0 -110 106 -110h165v216z" />
    <glyph glyph-name="one.pnum" horiz-adv-x="520" 
d="M244 580l-90 -52q-14 -9 -29 -9q-21 0 -35 14.5t-14 34.5q0 29 26 44l158 91q14 8 29 8q24 0 41 -17t17 -41v-611q0 -22 -15 -37t-36 -15q-22 0 -37 15t-15 37v538z" />
    <glyph glyph-name="two.pnum" horiz-adv-x="520" 
d="M96 0q-24 0 -41 17t-17 41q0 21 13 37l252 303q22 26 32 52t10 58q0 22 -7 41.5t-20 34.5t-32.5 23.5t-43.5 8.5q-32 0 -59 -5.5t-59 -22.5q-6 -3 -12 -5.5t-14 -2.5q-20 0 -35 13.5t-15 33.5q0 14 7 26t21 19q46 24 85 31.5t81 7.5q45 0 83 -14.5t66 -43.5
q29 -29 43 -67t14 -83q0 -29 -6.5 -53t-16.5 -44.5t-22.5 -38t-24.5 -33.5q-6 -8 -28 -34.5t-51 -61t-60.5 -72t-56.5 -68.5h222q22 0 36.5 -14t14.5 -34q0 -22 -14.5 -36t-36.5 -14h-308z" />
    <glyph glyph-name="three.pnum" horiz-adv-x="520" 
d="M209 313q-22 0 -37 14.5t-15 36.5q0 21 15 36t37 15h13q25 0 46.5 7.5t38 21t26 31t9.5 37.5q0 46 -27 75t-77 29q-32 0 -60 -5.5t-60 -21.5q-11 -6 -24 -6q-19 0 -34 13.5t-15 33.5q0 31 28 45q46 23 84.5 29.5t80.5 6.5q91 0 149 -55t58 -144q0 -43 -19 -79.5
t-54 -64.5q44 -29 68.5 -71.5t24.5 -93.5q0 -47 -16.5 -86t-46.5 -67.5t-72 -44t-92 -15.5q-49 0 -90.5 9.5t-80.5 27.5q-29 14 -29 45q0 20 15 34t37 14q5 0 11 -2t11 -4q29 -14 59 -21.5t67 -7.5q22 0 44.5 7t40 21.5t28.5 37t11 52.5q0 22 -10.5 42t-28.5 35t-42.5 24
t-52.5 9h-19z" />
    <glyph glyph-name="four.pnum" horiz-adv-x="520" 
d="M388 144v-103q0 -22 -15 -36.5t-37 -14.5q-21 0 -36 14.5t-15 36.5v103h-198q-23 0 -40.5 15t-17.5 40q0 11 4 20l170 458q13 34 50 34q20 0 34 -15t14 -37q0 -9 -3 -18l-151 -399h138v100q0 22 15 37t36 15q22 0 37 -15t15 -37v-100h60q21 0 35.5 -14t14.5 -35
t-14.5 -35t-35.5 -14h-60z" />
    </font>
</defs>
</svg>
